<?xml version="1.0" encoding="UTF-8" standalone="no"?>
<svg
   xmlns:dc="http://purl.org/dc/elements/1.1/"
   xmlns:cc="http://creativecommons.org/ns#"
   xmlns:rdf="http://www.w3.org/1999/02/22-rdf-syntax-ns#"
   xmlns:svg="http://www.w3.org/2000/svg"
   xmlns="http://www.w3.org/2000/svg"
   xmlns:sodipodi="http://sodipodi.sourceforge.net/DTD/sodipodi-0.dtd"
   xmlns:inkscape="http://www.inkscape.org/namespaces/inkscape"
   width="135.46758mm"
   height="135.46977mm"
   viewBox="0 0 135.46758 135.46977"
   version="1.1"
   id="svg8"
   inkscape:version="1.0.2 (e86c870879, 2021-01-15)"
   sodipodi:docname="028-path.svg">
  <defs
     id="defs2" />
  <sodipodi:namedview
     id="base"
     pagecolor="#ffffff"
     bordercolor="#666666"
     borderopacity="1.0"
     inkscape:pageopacity="0.0"
     inkscape:pageshadow="2"
     inkscape:zoom="0.35"
     inkscape:cx="-73.712593"
     inkscape:cy="123.43445"
     inkscape:document-units="mm"
     inkscape:current-layer="layer1"
     inkscape:document-rotation="0"
     showgrid="false"
     inkscape:window-width="1533"
     inkscape:window-height="1016"
     inkscape:window-x="50"
     inkscape:window-y="27"
     inkscape:window-maximized="0" />
  <metadata
     id="metadata5">
    <rdf:RDF>
      <cc:Work
         rdf:about="">
        <dc:format>image/svg+xml</dc:format>
        <dc:type
           rdf:resource="http://purl.org/dc/dcmitype/StillImage" />
        <dc:title></dc:title>
      </cc:Work>
    </rdf:RDF>
  </metadata>
  <g
     inkscape:label="Layer 1"
     inkscape:groupmode="layer"
     id="layer1"
     transform="translate(-125.33646,-115.50797)">
    <g
       id="g419"
       transform="matrix(0.26458333,0,0,0.26458333,125.33539,115.5079)">
      <path
         style="fill:#c62828"
         d="M 511.869,183.98 C 509.085,112.972 443.773,-1.332 254.301,0.012 56.445,1.42 -1.379,133.932 0.029,209.676 1.405,285.452 50.877,327.372 50.877,327.372 l 73.856,-60.864 c 0,0 -31.36,2.688 -31.36,-59.52 0,-94.784 113.568,-119.04 186.016,-117.696 72.448,1.344 129.632,59.84 130.624,105.504 0.96,44.64 -10.88,72.96 -47.04,93.312 -43.2,24.352 -95.552,2.72 -95.552,2.72 l 0.704,-152.832 -97.664,0.576 -0.256,269.952 c 0,0 -0.896,21.6 -26.112,20.288 -18.08,-0.928 -40.928,-20.8 -40.928,-20.8 l 0.16,80.32 c 0,0 28.192,23.68 72.8,23.68 96.16,0 91.968,-94.016 91.968,-94.016 v -52.96 c 0,0 19.616,9.472 58.624,9.472 161.664,0 187.488,-130.976 185.152,-190.528 z"
         id="path364" />
      <g
         id="g366">
</g>
      <g
         id="g368">
</g>
      <g
         id="g370">
</g>
      <g
         id="g372">
</g>
      <g
         id="g374">
</g>
      <g
         id="g376">
</g>
      <g
         id="g378">
</g>
      <g
         id="g380">
</g>
      <g
         id="g382">
</g>
      <g
         id="g384">
</g>
      <g
         id="g386">
</g>
      <g
         id="g388">
</g>
      <g
         id="g390">
</g>
      <g
         id="g392">
</g>
      <g
         id="g394">
</g>
    </g>
  </g>
</svg>
