<?xml version="1.0" encoding="UTF-8" standalone="no"?>
<svg
   xmlns:dc="http://purl.org/dc/elements/1.1/"
   xmlns:cc="http://creativecommons.org/ns#"
   xmlns:rdf="http://www.w3.org/1999/02/22-rdf-syntax-ns#"
   xmlns:svg="http://www.w3.org/2000/svg"
   xmlns="http://www.w3.org/2000/svg"
   xmlns:sodipodi="http://sodipodi.sourceforge.net/DTD/sodipodi-0.dtd"
   xmlns:inkscape="http://www.inkscape.org/namespaces/inkscape"
   width="135.46666mm"
   height="135.46666mm"
   viewBox="0 0 135.46666 135.46666"
   version="1.1"
   id="svg8"
   inkscape:version="1.0.2 (e86c870879, 2021-01-15)"
   sodipodi:docname="034-instagram.svg">
  <defs
     id="defs2" />
  <sodipodi:namedview
     id="base"
     pagecolor="#ffffff"
     bordercolor="#666666"
     borderopacity="1.0"
     inkscape:pageopacity="0.0"
     inkscape:pageshadow="2"
     inkscape:zoom="0.35"
     inkscape:cx="187.42857"
     inkscape:cy="198.85714"
     inkscape:document-units="mm"
     inkscape:current-layer="layer1"
     inkscape:document-rotation="0"
     showgrid="false"
     inkscape:window-width="1533"
     inkscape:window-height="1016"
     inkscape:window-x="50"
     inkscape:window-y="27"
     inkscape:window-maximized="0" />
  <metadata
     id="metadata5">
    <rdf:RDF>
      <cc:Work
         rdf:about="">
        <dc:format>image/svg+xml</dc:format>
        <dc:type
           rdf:resource="http://purl.org/dc/dcmitype/StillImage" />
        <dc:title></dc:title>
      </cc:Work>
    </rdf:RDF>
  </metadata>
  <g
     inkscape:label="Layer 1"
     inkscape:groupmode="layer"
     id="layer1"
     transform="translate(-56.242858,-95.552382)">
    <g
       id="g176"
       transform="matrix(0.26458333,0,0,0.26458333,56.242858,95.552382)"
       style="fill:#000000">
      <path
         style="fill:#000000"
         d="M 352,0 H 160 C 71.648,0 0,71.648 0,160 v 192 c 0,88.352 71.648,160 160,160 h 192 c 88.352,0 160,-71.648 160,-160 V 160 C 512,71.648 440.352,0 352,0 Z m 112,352 c 0,61.76 -50.24,112 -112,112 H 160 C 98.24,464 48,413.76 48,352 V 160 C 48,98.24 98.24,48 160,48 h 192 c 61.76,0 112,50.24 112,112 z"
         id="path101" />
      <path
         style="fill:#000000"
         d="m 256,128 c -70.688,0 -128,57.312 -128,128 0,70.688 57.312,128 128,128 70.688,0 128,-57.312 128,-128 0,-70.688 -57.312,-128 -128,-128 z m 0,208 c -44.096,0 -80,-35.904 -80,-80 0,-44.128 35.904,-80 80,-80 44.096,0 80,35.872 80,80 0,44.096 -35.904,80 -80,80 z"
         id="path110" />
      <circle
         style="fill:#000000"
         cx="393.60001"
         cy="118.4"
         r="17.056"
         id="circle119" />
      <g
         id="g121"
         style="fill:#000000">
</g>
      <g
         id="g123"
         style="fill:#000000">
</g>
      <g
         id="g125"
         style="fill:#000000">
</g>
      <g
         id="g127"
         style="fill:#000000">
</g>
      <g
         id="g129"
         style="fill:#000000">
</g>
      <g
         id="g131"
         style="fill:#000000">
</g>
      <g
         id="g133"
         style="fill:#000000">
</g>
      <g
         id="g135"
         style="fill:#000000">
</g>
      <g
         id="g137"
         style="fill:#000000">
</g>
      <g
         id="g139"
         style="fill:#000000">
</g>
      <g
         id="g141"
         style="fill:#000000">
</g>
      <g
         id="g143"
         style="fill:#000000">
</g>
      <g
         id="g145"
         style="fill:#000000">
</g>
      <g
         id="g147"
         style="fill:#000000">
</g>
      <g
         id="g149"
         style="fill:#000000">
</g>
    </g>
  </g>
</svg>
