<svg xmlns="http://www.w3.org/2000/svg" xmlns:xlink="http://www.w3.org/1999/xlink" xmlns:fi="http://pattern.flaticon.com/" x="0" y="0" width="350" height="350" viewBox="0 0 351.00286532951293 351.00286532951293"><rect x="0px" y="0px" width="100%" height="100%" opacity="0" fill="#ffffff"/><defs><g transform="matrix(0.12091898173093796 0 0 0.12091898173093796 114 46)" id="L1_3"><path d="M496.2,248.1C496.2,111.1,385.1,0,248.1,0S0,111.1,0,248.1s111.1,248.1,248.1,248.1  S496.2,385.1,496.2,248.1z" fill="#fabc3d"/><path d="M376,235.9c0-70.6-57.3-127.9-127.9-127.9s-127.9,57.3-127.9,127.9c0,5.7,0,152.2,0,152.2l30.8-21.4  l32.5,21.4l29.3-21.4l34.6,21.4l32.9-21.4l32.5,21.4l31.5-21.4l31.6,21.4C376,388.1,376,241.7,376,235.9z" fill="#67b236"/><circle cx="198" cy="228" r="27" fill="#fffffd"/><circle cx="198" cy="228" r="12" fill="#3a3a38"/><circle cx="297" cy="228" r="27" fill="#fffffd"/><circle cx="297" cy="228" r="12" fill="#3a3a38"/></g><g transform="matrix(0.12091898173093796 0 0 0.12091898173093796 -28 -17)" id="L1_4"><path d="M0,248.1C0,111.1,111.1,0,248.1,0s248.1,111.1,248.1,248.1S385.1,496.2,248.1,496.2S0,385.1,0,248.1z  " fill="#25b7d3"/><g><path d="M389.6,178.5c0,0-19.5-51.4-70.4-49.3c0,0-15.6,1.1-32.7,8.2l-40.5,0.7v45.8L389.6,178.5z" fill="#232323"/><path d="M106.6,178.5c0,0,19.5-51.4,70.4-49.3c0,0,15.6,1.1,32.7,8.2l40.5,0.7v45.8L106.6,178.5z" fill="#232323"/></g><g><path d="M280.8,178.3h-35.5v128h66.1c0,0,8.5-1.4,20.6,8.5c0,0,49.8,57.6,69,51.9c0,0,22.7-10.7,26.3-42.7   c3.6-32-6.4-79.6-27-125.1c0,0-10.7-32.7-37-46.9c0,0-38.6-17.5-55.7-3.3L280.8,178.3z" fill="#151412"/><path d="M215.4,178.3h35.5v128h-66.1c0,0-8.5-1.4-20.6,8.5c0,0-49.8,57.6-69,51.9c0,0-22.7-10.7-26.3-42.7   c-3.6-32,6.4-79.6,27-125.1c0,0,10.7-32.7,37-46.9c0,0,38.6-17.5,55.7-3.3L215.4,178.3z" fill="#151412"/></g><path d="M320.7,208.6c-6.1,0-11.1-5-11.1-11.1s5-11.1,11.1-11.1s11.1,5,11.1,11.1  C331.7,203.6,326.8,208.6,320.7,208.6z" fill="#070605"/><path d="M313.6,190.7h4.6l2.4,4.2l2.3-4.2h4.6l-4.2,6.6l4.6,7h-4.7l-2.7-4.3l-2.7,4.3h-4.7l4.7-7L313.6,190.7  z" fill="#265e67"/><path d="M354.5,174.7c0,6.1-5,11.1-11.1,11.1s-11.1-5-11.1-11.1s5-11.1,11.1-11.1  C349.5,163.7,354.5,168.6,354.5,174.7z" fill="#070605"/><path d="M336.1,169.1h14.7l-5.3,7.9v5.7h-4.2V177L336.1,169.1z" fill="#ac782b"/><path d="M366.2,208.6c-6.1,0-11.1-5-11.1-11.1s5-11.1,11.1-11.1s11.1,5,11.1,11.1S372.3,208.6,366.2,208.6z" fill="#070605"/><path d="M361,190.6h7.8c1.3,0,2.3,0.3,3,1c0.7,0.6,1.1,1.4,1.1,2.4c0,0.8-0.2,1.5-0.8,2.1  c-0.3,0.4-0.8,0.7-1.5,0.9c1,0.2,1.7,0.6,2.1,1.2c0.5,0.6,0.7,1.3,0.7,2.1c0,0.7-0.2,1.3-0.5,1.9c-0.3,0.6-0.8,1-1.3,1.3  c-0.4,0.2-0.9,0.3-1.6,0.4c-0.9,0.1-1.6,0.2-1.9,0.2h-7.2v-13.5H361z" fill="#b03738"/><path d="M354.5,220.3c0,6.1-5,11.1-11.1,11.1s-11.1-5-11.1-11.1s5-11.1,11.1-11.1  C349.5,209.2,354.5,214.1,354.5,220.3z" fill="#070605"/><path d="M345.9,223.7h-4.7l-0.7,2.2h-4.3l5.1-13.5h4.6l5.1,13.5h-4.4L345.9,223.7z" fill="#256533"/><path d="M265.5,158.6c0,9.3-7.5,16.8-16.8,16.8c-9.3,0-16.8-7.5-16.8-16.8s7.5-16.8,16.8-16.8  C258,141.9,265.5,149.4,265.5,158.6z" fill="#767676"/><path d="M263.9,158.6c0,8.4-6.8,15.2-15.2,15.2c-8.4,0-15.2-6.8-15.2-15.2s6.8-15.2,15.2-15.2  C257.1,143.5,263.9,150.2,263.9,158.6z" fill="#f2f2f2"/><path d="M262,165.6c0-4.7-9.6-13.1-9.6-13.1l6.7-4.8c-1.4-1.3-8.9,1.8-9.9,3.2c-0.7-1-8.6-4.9-10.1-3.6    l7,5.6c0,0-10,9-10,13.6l13.4-11.1L262,165.6z" fill="#141314"/><path d="M228.8,258.9c0,14.6-11.9,26.5-26.5,26.5s-26.5-11.9-26.5-26.5s11.9-26.5,26.5-26.5   C217,232.4,228.8,244.3,228.8,258.9z" id="SVGID_5_" fill="#383633"/><path d="M227.2,268.1c1-2.8,1.6-5.9,1.6-9.1c0-2.7-0.4-5.4-1.2-7.8h-12.8l-3.8-3.8V234  c-2.8-1-5.7-1.5-8.8-1.5c-2.9,0-5.7,0.5-8.4,1.4V247l-4.2,4.2h-12.8c-0.8,2.5-1.2,5.1-1.2,7.8c0,3.2,0.6,6.3,1.7,9.1h12.1l4.4,4.4  v11.6c2.6,0.9,5.4,1.4,8.4,1.4c3.1,0,6-0.5,8.8-1.5v-11.9l4-4H227.2z" fill="#151412"/><g><path d="M282,201c0,3.6-2.9,6.4-6.4,6.4s-6.4-2.9-6.4-6.4s2.9-6.4,6.4-6.4S282,197.5,282,201z" fill="#33312e"/><path d="M228.4,201c0,3.6-2.9,6.4-6.4,6.4s-6.4-2.9-6.4-6.4s2.9-6.4,6.4-6.4   C225.5,194.6,228.4,197.5,228.4,201z" fill="#33312e"/></g><path d="M322.3,257.9c0,14.2-11.6,25.8-26,25.8s-26-11.5-26-25.8c0-14.2,11.6-25.8,26-25.8  C310.7,232.1,322.3,243.6,322.3,257.9z" fill="#4d4d4d"/><path d="M315.7,257.9c0,10.6-8.7,19.3-19.4,19.3c-10.7,0-19.4-8.6-19.4-19.3c0-10.6,8.7-19.3,19.4-19.3  C307,238.6,315.7,247.2,315.7,257.9z" fill="#151412"/><path d="M188.7,197.4c0,17-13.9,30.8-31,30.8s-31-13.8-31-30.8s13.9-30.8,31-30.8  C174.8,166.7,188.7,180.4,188.7,197.4z" fill="#4d4d4d"/><path d="M180.8,197.4c0,12.7-10.4,23-23.2,23s-23.1-10.3-23.1-23s10.4-23,23.1-23  C170.5,174.5,180.8,184.7,180.8,197.4z" fill="#151412"/></g><g transform="matrix(0.12091898173093796 0 0 0.12091898173093796 205 258)" id="L1_5"><path d="M496.2,248.1C496.2,111.1,385.1,0,248.1,0S0,111.1,0,248.1s111.1,248.1,248.1,248.1  S496.2,385.1,496.2,248.1z" fill="#334d5c"/><g><path d="M146.3,144.6V98.9c0-0.9-0.7-1.6-1.6-1.6H99c-0.9,0-1.6,0.7-1.6,1.6v45.7c0,0.9,0.7,1.6,1.6,1.6   h45.7C145.5,146.3,146.3,145.6,146.3,144.6z" fill="#4abc96"/><path d="M146.3,195.2v-45.7c0-0.9-0.7-1.6-1.6-1.6H99c-0.9,0-1.6,0.7-1.6,1.6v45.7c0,0.9,0.7,1.6,1.6,1.6   h45.7C145.5,196.8,146.3,196.1,146.3,195.2z" fill="#4abc96"/><path d="M146.3,245.7V200c0-0.9-0.7-1.6-1.6-1.6H99c-0.9,0-1.6,0.7-1.6,1.6v45.7c0,0.9,0.7,1.6,1.6,1.6h45.7   C145.5,247.3,146.3,246.6,146.3,245.7z" fill="#4abc96"/><path d="M146.3,296.2v-45.7c0-0.9-0.7-1.6-1.6-1.6H99c-0.9,0-1.6,0.7-1.6,1.6v45.7c0,0.9,0.7,1.6,1.6,1.6   h45.7C145.5,297.8,146.3,297.1,146.3,296.2z" fill="#4abc96"/></g><g><path d="M296.1,248.9h-45.7c-0.9,0-1.6,0.7-1.6,1.6v45.7c0,0.9,0.7,1.6,1.6,1.6h45.7c0.9,0,1.6-0.7,1.6-1.6   v-45.7C297.7,249.7,297,248.9,296.1,248.9z" fill="#e2d71a"/><path d="M346.6,248.9h-45.7c-0.9,0-1.6,0.7-1.6,1.6v45.7c0,0.9,0.7,1.6,1.6,1.6h45.7c0.9,0,1.6-0.7,1.6-1.6   v-45.7C348.3,249.7,347.5,248.9,346.6,248.9z" fill="#e2d71a"/><path d="M296.1,299.5h-45.7c-0.9,0-1.6,0.7-1.6,1.6v45.7c0,0.9,0.7,1.6,1.6,1.6h45.7c0.9,0,1.6-0.7,1.6-1.6   v-45.7C297.7,300.2,297,299.5,296.1,299.5z" fill="#e2d71a"/><path d="M346.6,299.5h-45.7c-0.9,0-1.6,0.7-1.6,1.6v45.7c0,0.9,0.7,1.6,1.6,1.6h45.7c0.9,0,1.6-0.7,1.6-1.6   v-45.7C348.3,300.2,347.5,299.5,346.6,299.5z" fill="#e2d71a"/></g><g><path d="M196.8,296.2v-45.7c0-0.9-0.7-1.6-1.6-1.6h-45.7c-0.9,0-1.6,0.7-1.6,1.6v45.7c0,0.9,0.7,1.6,1.6,1.6   h45.7C196.1,297.8,196.8,297.1,196.8,296.2z" fill="#ea4949"/><path d="M196.8,346.7V301c0-0.9-0.7-1.6-1.6-1.6h-45.7c-0.9,0-1.6,0.7-1.6,1.6v45.7c0,0.9,0.7,1.6,1.6,1.6   h45.7C196.1,348.3,196.8,347.6,196.8,346.7z" fill="#ea4949"/><path d="M146.3,346.7V301c0-0.9-0.7-1.6-1.6-1.6H99c-0.9,0-1.6,0.7-1.6,1.6v45.7c0,0.9,0.7,1.6,1.6,1.6h45.7   C145.5,348.3,146.3,347.6,146.3,346.7z" fill="#ea4949"/><path d="M146.3,397.2v-45.7c0-0.9-0.7-1.6-1.6-1.6H99c-0.9,0-1.6,0.7-1.6,1.6v45.7c0,0.9,0.7,1.6,1.6,1.6   h45.7C145.5,398.8,146.3,398.1,146.3,397.2z" fill="#ea4949"/></g><g><path d="M398.9,200v45.7c0,0.9-0.7,1.6-1.6,1.6h-45.7c-0.9,0-1.6-0.7-1.6-1.6V200c0-0.9,0.7-1.6,1.6-1.6   h45.7C398.1,198.3,398.9,199.1,398.9,200z" fill="#64a80d"/><path d="M398.9,149.4v45.7c0,0.9-0.7,1.6-1.6,1.6h-45.7c-0.9,0-1.6-0.7-1.6-1.6v-45.7c0-0.9,0.7-1.6,1.6-1.6   h45.7C398.1,147.8,398.9,148.5,398.9,149.4z" fill="#64a80d"/><path d="M348.4,149.4v45.7c0,0.9-0.7,1.6-1.6,1.6h-45.7c-0.9,0-1.6-0.7-1.6-1.6v-45.7c0-0.9,0.7-1.6,1.6-1.6   h45.7C347.6,147.8,348.4,148.5,348.4,149.4z" fill="#64a80d"/><path d="M348.4,98.9v45.7c0,0.9-0.7,1.6-1.6,1.6h-45.7c-0.9,0-1.6-0.7-1.6-1.6V98.9c0-0.9,0.7-1.6,1.6-1.6   h45.7C347.6,97.3,348.4,98,348.4,98.9z" fill="#64a80d"/></g><g><path d="M198.2,351.5v45.7c0,0.9,0.7,1.6,1.6,1.6h45.7c0.9,0,1.6-0.7,1.6-1.6v-45.7c0-0.9-0.7-1.6-1.6-1.6   h-45.7C198.9,349.9,198.2,350.6,198.2,351.5z" fill="#337180"/><path d="M147.7,351.5v45.7c0,0.9,0.7,1.6,1.6,1.6H195c0.9,0,1.6-0.7,1.6-1.6v-45.7c0-0.9-0.7-1.6-1.6-1.6   h-45.7C148.4,349.9,147.7,350.6,147.7,351.5z" fill="#337180"/><path d="M198.2,301v45.7c0,0.9,0.7,1.6,1.6,1.6h45.7c0.9,0,1.6-0.7,1.6-1.6V301c0-0.9-0.7-1.6-1.6-1.6h-45.7   C198.9,299.4,198.2,300.1,198.2,301z" fill="#337180"/><path d="M198.2,250.5v45.7c0,0.9,0.7,1.6,1.6,1.6h45.7c0.9,0,1.6-0.7,1.6-1.6v-45.7c0-0.9-0.7-1.6-1.6-1.6   h-45.7C198.9,248.9,198.2,249.6,198.2,250.5z" fill="#337180"/></g><g><path d="M351.5,350h45.6c0.9,0,1.6,0.7,1.6,1.6v45.7c0,0.9-0.7,1.6-1.6,1.6h-45.7c-0.9,0-1.6-0.7-1.6-1.6   v-45.7C349.8,350.7,350.6,350,351.5,350z" fill="#e5aa17"/><path d="M351.5,299.5h45.6c0.9,0,1.6,0.7,1.6,1.6v45.7c0,0.9-0.7,1.6-1.6,1.6h-45.7c-0.9,0-1.6-0.7-1.6-1.6   v-45.7C349.8,300.2,350.6,299.5,351.5,299.5z" fill="#e5aa17"/><path d="M300.9,350h45.7c0.9,0,1.6,0.7,1.6,1.6v45.7c0,0.9-0.7,1.6-1.6,1.6h-45.7c-0.9,0-1.6-0.7-1.6-1.6   v-45.7C299.3,350.7,300,350,300.9,350z" fill="#e5aa17"/><path d="M250.4,350h45.7c0.9,0,1.6,0.7,1.6,1.6v45.7c0,0.9-0.7,1.6-1.6,1.6h-45.7c-0.9,0-1.6-0.7-1.6-1.6   v-45.7C248.8,350.7,249.5,350,250.4,350z" fill="#e5aa17"/></g><g><path d="M195.2,248.9h-45.7c-0.9,0-1.6,0.7-1.6,1.6v45.7c0,0.9,0.7,1.6,1.6,1.6h45.7c0.9,0,1.6-0.7,1.6-1.6   v-45.7C196.8,249.6,196.1,248.9,195.2,248.9z" fill="#fc6363"/><path d="M149.5,299.4c-0.9,0-1.6,0.7-1.6,1.6v45.7c0,0.5,0.2,0.9,0.5,1.2l47.9-48c-0.3-0.3-0.7-0.5-1.1-0.5   L149.5,299.4L149.5,299.4z" fill="#fc6363"/><path d="M144.6,299.4H98.9c-0.9,0-1.6,0.7-1.6,1.6v45.7c0,0.9,0.7,1.6,1.6,1.6h45.7c0.9,0,1.6-0.7,1.6-1.6   V301C146.3,300.1,145.5,299.4,144.6,299.4z" fill="#fc6363"/><path d="M144.6,349.9H98.9c-0.9,0-1.6,0.7-1.6,1.6v45.7c0,0.5,0.2,0.9,0.6,1.2l47.9-48   C145.5,350.1,145.1,349.9,144.6,349.9z" fill="#fc6363"/></g><g><path d="M346.7,147.8H301c-0.9,0-1.6,0.7-1.6,1.6v45.7c0,0.4,0.1,0.7,0.4,1l47.9-48   C347.4,147.9,347.1,147.8,346.7,147.8z" fill="#7bc116"/><path d="M301,146.2h45.7c0.9,0,1.6-0.7,1.6-1.6V98.9c0-0.9-0.7-1.6-1.6-1.6H301c-0.9,0-1.6,0.7-1.6,1.6v45.7   C299.4,145.5,300.1,146.2,301,146.2z" fill="#7bc116"/></g><path d="M245.5,248.9h-45.7c-0.9,0-1.6,0.7-1.6,1.6v45.7c0,0.5,0.2,0.9,0.6,1.2l47.9-48  C246.4,249,246,248.9,245.5,248.9z" fill="#428a96"/></g><g transform="matrix(0.12091898173093796 0 0 0.12091898173093796 288 130)" id="L1_6"><path d="M496.2,248.1C496.2,111.1,385.1,0,248.1,0S0,111.1,0,248.1s111.1,248.1,248.1,248.1  S496.2,385.1,496.2,248.1z" fill="#32bea6"/><path d="M300.7,433c0,9.1-7.3,16.4-16.4,16.4h-72.5c-9.1,0-16.4-7.3-16.4-16.4V63.2c0-9.1,7.3-16.4,16.4-16.4  h72.5c9.1,0,16.4,7.3,16.4,16.4V433z" fill="#ededeb"/><g><path d="M282.8,121.1h-23.3V97.8c0-1.6-1.3-2.9-2.9-2.9h-12.8c-1.6,0-2.9,1.3-2.9,2.9v23.3h-23.3   c-1.6,0-2.9,1.3-2.9,2.9v12.8c0,1.6,1.3,2.9,2.9,2.9h23.3V163c0,1.6,1.3,2.9,2.9,2.9h12.8c1.6,0,2.9-1.3,2.9-2.9v-23.3h23.3   c1.6,0,2.9-1.3,2.9-2.9V124C285.7,122.4,284.4,121.1,282.8,121.1z" fill="#d7d9d6"/><circle cx="248" cy="193" r="15" fill="#d7d9d6"/></g><circle cx="248" cy="193" r="6" fill="#ffffff"/><g><circle cx="248" cy="358" r="10" fill="#d7d9d6"/><path d="M238.5,395.5c0-5.8,4.7-10.5,10.5-10.5c5.8,0,10.5,4.7,10.5,10.5S254.8,406,249,406   S238.5,401.3,238.5,395.5z" fill="#d7d9d6"/></g><path d="M247.7,399.4h4.4c0.4,0,0.8,0.1,1,0.3c0.2,0.2,0.3,0.4,0.3,0.7c0,0.3-0.1,0.5-0.3,0.7  c-0.2,0.2-0.5,0.3-0.8,0.3h-6.2c-0.4,0-0.8-0.1-1-0.4c-0.2-0.2-0.4-0.5-0.4-0.8c0-0.2,0.1-0.5,0.2-0.8c0.2-0.3,0.3-0.6,0.5-0.8  c0.8-0.8,1.4-1.5,2-2c0.6-0.6,1-0.9,1.3-1.1c0.5-0.3,0.9-0.7,1.2-1c0.3-0.3,0.5-0.7,0.7-1s0.2-0.7,0.2-1c0-0.4-0.1-0.7-0.3-1  c-0.2-0.3-0.4-0.5-0.7-0.7c-0.3-0.2-0.6-0.2-1-0.2c-0.7,0-1.3,0.3-1.8,1c-0.1,0.1-0.2,0.3-0.3,0.7c-0.1,0.4-0.3,0.7-0.4,0.9  c-0.2,0.2-0.4,0.3-0.7,0.3s-0.5-0.1-0.7-0.3c-0.2-0.2-0.3-0.4-0.3-0.8s0.1-0.8,0.3-1.2c0.2-0.4,0.4-0.8,0.8-1.2  c0.3-0.3,0.8-0.6,1.3-0.8c0.5-0.2,1.2-0.3,1.9-0.3c0.9,0,1.6,0.1,2.2,0.4c0.4,0.2,0.7,0.4,1,0.7c0.3,0.3,0.5,0.7,0.7,1.1  s0.3,0.8,0.3,1.3c0,0.7-0.2,1.3-0.5,1.9s-0.7,1-1.1,1.4c-0.4,0.3-1,0.8-1.8,1.5c-0.9,0.7-1.4,1.2-1.8,1.6  C248,399,247.8,399.2,247.7,399.4z" fill="#9e9e9e"/><g><circle cx="223" cy="258" r="7" fill="#d7d9d6"/><path d="M206.9,66.9c0-5.5,4.4-9.9,9.9-9.9s9.9,4.4,9.9,9.9s-4.4,9.9-9.9,9.9   C211.3,76.8,206.9,72.4,206.9,66.9z" fill="#d7d9d6"/><circle cx="273" cy="258" r="7" fill="#d7d9d6"/></g><path d="M240.4,258.2c0-4.3,3.5-7.8,7.8-7.8c4.3,0,7.8,3.5,7.8,7.8s-3.5,7.8-7.8,7.8  C243.9,266.1,240.4,262.5,240.4,258.2z" fill="#60d0e8"/><path d="M249,364.2v-7.7c-1.4,1.1-2.4,1.7-2.9,1.7c-0.2,0-0.4-0.1-0.6-0.3c-0.2-0.2-0.3-0.4-0.3-0.7  c0-0.3,0.1-0.5,0.3-0.6s0.5-0.3,1-0.5c0.7-0.3,1.2-0.7,1.6-1c0.4-0.4,0.8-0.8,1.1-1.2c0.3-0.4,0.5-0.7,0.6-0.8  c0.1-0.1,0.3-0.2,0.5-0.2c0.3,0,0.5,0.1,0.7,0.3c0.2,0.2,0.3,0.6,0.3,1v9.7c0,1.1-0.4,1.7-1.2,1.7c-0.3,0-0.6-0.1-0.8-0.3  C249.1,365,249,364.6,249,364.2z" fill="#9e9e9e"/><path d="M218.4,61.4v2.2c1.2,0.6,2.1,1.9,2.1,3.3c0,2-1.7,3.7-3.7,3.7c-2.1,0-3.7-1.7-3.7-3.7   c0-1.4,0.8-2.6,2-3.3v-2.2c-2.3,0.7-4.1,2.9-4.1,5.5c0,3.2,2.6,5.8,5.8,5.8s5.8-2.6,5.8-5.8C222.6,64.3,220.8,62.1,218.4,61.4z" fill="#d61d3c"/><g><path d="M279.7,118h-23.3V94.7c0-1.6-1.3-2.9-2.9-2.9h-12.8c-1.6,0-2.9,1.3-2.9,2.9V118h-23.3   c-1.6,0-2.9,1.3-2.9,2.9v12.8c0,1.6,1.3,2.9,2.9,2.9h23.3v23.3c0,1.6,1.3,2.9,2.9,2.9h12.8c1.6,0,2.9-1.3,2.9-2.9v-23.3h23.3   c1.6,0,2.9-1.3,2.9-2.9v-12.8C282.6,119.3,281.3,118,279.7,118z" fill="#ffffff"/><path d="M227.7,259.3h-8.3c-0.6,0-1-0.5-1-1c0-0.6,0.5-1,1-1h8.3c0.6,0,1,0.5,1,1   C228.7,258.9,228.3,259.3,227.7,259.3z" fill="#ffffff"/><path d="M277.3,259.3H269c-0.6,0-1-0.5-1-1c0-0.6,0.5-1,1-1h8.3c0.6,0,1,0.5,1,1   C278.3,258.9,277.8,259.3,277.3,259.3z" fill="#ffffff"/><path d="M272.1,262.4v-8.3c0-0.6,0.5-1,1-1c0.6,0,1,0.5,1,1v8.3c0,0.6-0.5,1-1,1   C272.6,263.5,272.1,263,272.1,262.4z" fill="#ffffff"/></g></g><g transform="matrix(0.12091898173093796 0 0 0.12091898173093796 83 202)" id="L1_8"><path d="M496.2,248.1C496.2,111.1,385.1,0,248.1,0S0,111.1,0,248.1s111.1,248.1,248.1,248.1  S496.2,385.1,496.2,248.1z" fill="#ea4949"/><path d="M349.1,91.3c0-4.4-3.5-7.9-7.9-7.9H154.9c-4.4,0-7.9,3.5-7.9,7.9v313.6l0,0v5c0,1.6,1.3,2.9,2.9,2.9  h5l0,0h156.5c20.8,0,37.6-16.9,37.6-37.6L349.1,91.3z" fill="#c3c2be"/><path d="M331,112.9H169.4c-0.6,0-1.1,0.2-1.5,0.6s-0.6,0.9-0.6,1.5v122.8c0,1.2,0.9,2.1,2.1,2.1h136.3  c15.1,0,27.4-12.3,27.4-27.4V115C333.1,113.8,332.1,112.9,331,112.9z" fill="#5c5a68"/><g><path d="M200.8,330.2c0,1.7-1.4,3-3,3h-11.2c-1.7,0-3-1.3-3-3v-45.4c0-1.7,1.3-3,3-3h11.2c1.7,0,3,1.3,3,3   V330.2z" fill="#0d101f"/><path d="M169.5,316.1c-1.7,0-3-1.4-3-3v-11.2c0-1.7,1.3-3,3-3h45.4c1.7,0,3,1.3,3,3v11.2c0,1.7-1.4,3-3,3   H169.5z" fill="#0d101f"/></g><g><circle cx="289" cy="312" r="12" fill="#7a082e"/><circle cx="321" cy="296" r="12" fill="#7a082e"/></g><g><path d="M217,361.1c-1.6,0.9-3.6,0.3-4.5-1.3l0,0c-0.9-1.6-0.3-3.6,1.3-4.5l14.7-7.9   c1.6-0.9,3.6-0.3,4.5,1.3l0,0c0.9,1.6,0.3,3.6-1.3,4.5L217,361.1z" fill="#76757a"/><path d="M250.7,360.7c-1.6,0.9-3.6,0.3-4.5-1.3l0,0c-0.9-1.6-0.3-3.6,1.3-4.5l14.7-7.9   c1.6-0.9,3.6-0.3,4.5,1.3l0,0c0.9,1.6,0.3,3.6-1.3,4.5L250.7,360.7z" fill="#76757a"/></g><g><path d="M290.7,402c0.5,0.9,0.1,2.1-0.8,2.6l0,0c-0.9,0.5-2.1,0.1-2.6-0.8L273.8,378   c-0.5-0.9-0.1-2.1,0.8-2.6l0,0c0.9-0.5,2.1-0.1,2.6,0.8L290.7,402z" fill="#b5b5b4"/><path d="M300.2,397.1c0.5,0.9,0.1,2.1-0.8,2.6l0,0c-0.9,0.5-2.1,0.1-2.6-0.8l-13.5-25.8   c-0.5-0.9-0.1-2.1,0.8-2.6l0,0c0.9-0.5,2.1-0.1,2.6,0.8L300.2,397.1z" fill="#b5b5b4"/><path d="M309.7,391.7c0.5,0.9,0.1,2.1-0.8,2.6l0,0c-0.9,0.5-2.1,0.1-2.6-0.8l-13.5-25.8   c-0.5-0.9-0.1-2.1,0.8-2.6l0,0c0.9-0.5,2.1-0.1,2.6,0.8L309.7,391.7z" fill="#b5b5b4"/><path d="M319.3,386.5c0.5,0.9,0.1,2.1-0.8,2.6l0,0c-0.9,0.5-2.1,0.1-2.6-0.8l-13.5-25.8   c-0.5-0.9-0.1-2.1,0.8-2.6l0,0c0.9-0.5,2.1-0.1,2.6,0.8L319.3,386.5z" fill="#b5b5b4"/><path d="M329.1,380.5c0.5,0.9,0.1,2.1-0.8,2.6l0,0c-0.9,0.5-2.1,0.1-2.6-0.8l-13.5-25.8   c-0.5-0.9-0.1-2.1,0.8-2.6l0,0c0.9-0.5,2.1-0.1,2.6,0.8L329.1,380.5z" fill="#b5b5b4"/><path d="M338.8,374.8c0.5,0.9,0.1,2.1-0.8,2.6l0,0c-0.9,0.5-2.1,0.1-2.6-0.8l-13.5-25.8   c-0.5-0.9-0.1-2.1,0.8-2.6l0,0c0.9-0.5,2.1-0.1,2.6,0.8L338.8,374.8z" fill="#b5b5b4"/></g><rect x="198px" y="128px" width="104px" height="95px" fill="#485714"/><path d="M198.1,223.2 198.1,128 302.2,128z" fill="#5e6d20"/><rect x="147px" y="100px" width="202px" height="5px" fill="#b5b5b4"/></g></defs><g fi:class="KUsePattern"><pattern id="pattern_L1_3" width="350" height="350" patternUnits="userSpaceOnUse"><use xlink:href="#L1_3" x="-350" y="-350"/><use xlink:href="#L1_3" x="0" y="-350"/><use xlink:href="#L1_3" x="350" y="-350"/><use xlink:href="#L1_3" x="-350" y="0"/><use xlink:href="#L1_3" x="0" y="0"/><use xlink:href="#L1_3" x="350" y="0"/><use xlink:href="#L1_3" x="-350" y="350"/><use xlink:href="#L1_3" x="0" y="350"/><use xlink:href="#L1_3" x="350" y="350"/></pattern><rect x="0" y="0" width="100%" height="100%" fill="url(#pattern_L1_3)"/></g><g fi:class="KUsePattern"><pattern id="pattern_L1_4" width="350" height="350" patternUnits="userSpaceOnUse"><use xlink:href="#L1_4" x="-350" y="-350"/><use xlink:href="#L1_4" x="0" y="-350"/><use xlink:href="#L1_4" x="350" y="-350"/><use xlink:href="#L1_4" x="-350" y="0"/><use xlink:href="#L1_4" x="0" y="0"/><use xlink:href="#L1_4" x="350" y="0"/><use xlink:href="#L1_4" x="-350" y="350"/><use xlink:href="#L1_4" x="0" y="350"/><use xlink:href="#L1_4" x="350" y="350"/></pattern><rect x="0" y="0" width="100%" height="100%" fill="url(#pattern_L1_4)"/></g><g fi:class="KUsePattern"><pattern id="pattern_L1_5" width="350" height="350" patternUnits="userSpaceOnUse"><use xlink:href="#L1_5" x="-350" y="-350"/><use xlink:href="#L1_5" x="0" y="-350"/><use xlink:href="#L1_5" x="350" y="-350"/><use xlink:href="#L1_5" x="-350" y="0"/><use xlink:href="#L1_5" x="0" y="0"/><use xlink:href="#L1_5" x="350" y="0"/><use xlink:href="#L1_5" x="-350" y="350"/><use xlink:href="#L1_5" x="0" y="350"/><use xlink:href="#L1_5" x="350" y="350"/></pattern><rect x="0" y="0" width="100%" height="100%" fill="url(#pattern_L1_5)"/></g><g fi:class="KUsePattern"><pattern id="pattern_L1_6" width="350" height="350" patternUnits="userSpaceOnUse"><use xlink:href="#L1_6" x="-350" y="-350"/><use xlink:href="#L1_6" x="0" y="-350"/><use xlink:href="#L1_6" x="350" y="-350"/><use xlink:href="#L1_6" x="-350" y="0"/><use xlink:href="#L1_6" x="0" y="0"/><use xlink:href="#L1_6" x="350" y="0"/><use xlink:href="#L1_6" x="-350" y="350"/><use xlink:href="#L1_6" x="0" y="350"/><use xlink:href="#L1_6" x="350" y="350"/></pattern><rect x="0" y="0" width="100%" height="100%" fill="url(#pattern_L1_6)"/></g><g fi:class="KUsePattern"><pattern id="pattern_L1_8" width="350" height="350" patternUnits="userSpaceOnUse"><use xlink:href="#L1_8" x="-350" y="-350"/><use xlink:href="#L1_8" x="0" y="-350"/><use xlink:href="#L1_8" x="350" y="-350"/><use xlink:href="#L1_8" x="-350" y="0"/><use xlink:href="#L1_8" x="0" y="0"/><use xlink:href="#L1_8" x="350" y="0"/><use xlink:href="#L1_8" x="-350" y="350"/><use xlink:href="#L1_8" x="0" y="350"/><use xlink:href="#L1_8" x="350" y="350"/></pattern><rect x="0" y="0" width="100%" height="100%" fill="url(#pattern_L1_8)"/></g></svg>